<?xml version="1.0" encoding="utf-8"?>
<svg viewBox="0 0 500 500" xmlns="http://www.w3.org/2000/svg">
  <g id="g3743" transform="matrix(2.662055, 0, 0, 2.662055, 896.55188, -1599.522949)">
    <title>Computer</title>
    <path id="rect4590" d="m-243.07 617.72c-3.0808 0-5.5625 2.4818-5.5625 5.5625v27.344c0 0.58819 0.0823 1.1562 0.25 1.6875h-5.9688c-2.5861 0-4.6562 1.1042-4.6562 2.4688s2.0702 2.4688 4.6562 2.4688h22.938c2.5861 0 4.6562-1.1042 4.6562-2.4688s-2.0702-2.4688-4.6562-2.4688h-5.25c0.16773-0.53132 0.25-1.0993 0.25-1.6875v-27.344c0-3.0808-2.4818-5.5625-5.5625-5.5625h-1.0938z" fill="#555753"/>
    <rect id="rect4574" ry="5.5609" height="38.449" width="50.166" stroke="#555753" y="607.3" x="-267.96" stroke-width="3.7405" fill="#fff"/>
    <rect id="rect4576" ry="2.3817" height="22.411" width="41.383" stroke="#555753" y="611.75" x="-264.16" stroke-width="2.5937" fill="#555753"/>
    <rect id="rect4578" ry="1.2374" transform="rotate(-90)" height="4.4831" width="5.523" y="-245.77" x="-642.99" fill="#555753"/>
    <rect id="rect4588" ry=".65271" height="3" width="38.246" y="614.11" x="-262" fill="#fff"/>
  </g>
  <g id="g5505" transform="matrix(0.8365, 0, 0, 0.8365, -960.725342, 480.59436)">
    <title>Serv3er</title>
    <path id="path23563" stroke="#555753" stroke-width="3" fill="#fff" d="m1196.1-182.85 2-9.0355c0-1.0651 1.4965-1.9226 3.3554-1.9226h45.5c1.8589 0 3.3554 0.85748 3.3554 1.9226l2 9.0355c0 1.0651-1.4965 1.9226-3.3554 1.9226h-49.5c-1.8589 0-3.3554-0.85748-3.3554-1.9226z"/>
    <path id="path23502" stroke="#555753" stroke-width="3" fill="#fff" d="m1196.1-171.16v-10.516c0-1.2397 1.4965-2.2377 3.3554-2.2377h49.5c1.8589 0 3.3554 0.998 3.3554 2.2377v10.516c0 1.2397-1.4965 2.2377-3.3554 2.2377h-49.5c-1.8589 0-3.3554-0.998-3.3554-2.2377z"/>
    <path id="path23504" style="color:#000000" d="m885 138.74c0 3.5208-2.8542 6.375-6.375 6.375s-6.375-2.8542-6.375-6.375 2.8542-6.375 6.375-6.375 6.375 2.8542 6.375 6.375z" fill-rule="evenodd" transform="matrix(.23413 0 0 .22354 1040.4 -210.15)" fill="#555753"/>
    <path id="path23506" fill="#555753" d="m1199.2-180.33c-0.08 0-0.1513 0.13148-0.1811 0.3125-0.01 0.0603-0.012 0.11818-0.012 0.1875-0.0002 0.01 0 0.0215 0 0.0312v2.9062c0 0.27728 0.086 0.5 0.1932 0.5h12.52c0.1071 0 0.1932-0.22272 0.1932-0.5v-2.9062c0-0.0693 0-0.15841-0.012-0.21875-0.03-0.18102-0.1007-0.3125-0.1811-0.3125l-12.52 0.00005z"/>
    <path id="path23508" fill="#555753" d="m1214-180.52c-0.08 0-0.1513 0.13148-0.1811 0.3125-0.01 0.0603-0.012 0.11818-0.012 0.1875-0.0002 0.01 0 0.0215 0 0.0312v2.9062c0 0.27728 0.086 0.5 0.1932 0.5h12.52c0.1071 0 0.1932-0.22272 0.1932-0.5v-2.9062c0-0.0693 0-0.15841-0.012-0.21875-0.03-0.18102-0.1007-0.3125-0.1811-0.3125l-12.52 0.00005z"/>
    <path id="path23510" style="color:#000000" d="m885 138.74c0 3.5208-2.8542 6.375-6.375 6.375s-6.375-2.8542-6.375-6.375 2.8542-6.375 6.375-6.375 6.375 2.8542 6.375 6.375z" fill-rule="evenodd" transform="matrix(.23413 0 0 .22354 1035.5 -210.21)" fill="#555753"/>
    <path id="path23554" style="block-progression:tb;color:#000000;text-transform:none;text-indent:0" fill="#555753" d="m1220.7-168.65v8.125h-23.562v2h25.562v-6.125h3.0001v6.125h25.562v-2h-23.562v-8.125h-7.0001zm-23.562 13.125v2h54.125v-2h-54.125z"/>
    <path id="path23567" stroke="#555753" stroke-width="3" fill="#fff" d="m1196.1-202.85 2-9.0355c0-1.0651 1.4965-1.9226 3.3554-1.9226h45.5c1.8589 0 3.3554 0.85748 3.3554 1.9226l2 9.0355c0 1.0651-1.4965 1.9226-3.3554 1.9226h-49.5c-1.8589 0-3.3554-0.85748-3.3554-1.9226z"/>
    <path id="path23569" stroke="#555753" stroke-width="3" fill="#fff" d="m1196.1-191.16v-10.516c0-1.2397 1.4965-2.2377 3.3554-2.2377h49.5c1.8589 0 3.3554 0.998 3.3554 2.2377v10.516c0 1.2397-1.4965 2.2377-3.3554 2.2377h-49.5c-1.8589 0-3.3554-0.998-3.3554-2.2377z"/>
    <path id="path23571" style="color:#000000" d="m885 138.74c0 3.5208-2.8542 6.375-6.375 6.375s-6.375-2.8542-6.375-6.375 2.8542-6.375 6.375-6.375 6.375 2.8542 6.375 6.375z" fill-rule="evenodd" transform="matrix(.23413 0 0 .22354 1040.4 -230.15)" fill="#555753"/>
    <path id="path23573" fill="#555753" d="m1199.2-200.33c-0.08 0-0.1513 0.13148-0.1811 0.3125-0.01 0.0603-0.012 0.11818-0.012 0.1875-0.0002 0.01 0 0.0215 0 0.0312v2.9062c0 0.27728 0.086 0.5 0.1932 0.5h12.52c0.1071 0 0.1932-0.22272 0.1932-0.5v-2.9062c0-0.0693 0-0.15841-0.012-0.21875-0.03-0.18102-0.1007-0.3125-0.1811-0.3125l-12.52 0.00005z"/>
    <path id="path23575" fill="#555753" d="m1214-200.52c-0.08 0-0.1513 0.13148-0.1811 0.3125-0.01 0.0603-0.012 0.11818-0.012 0.1875-0.0002 0.01 0 0.0215 0 0.0312v2.9062c0 0.27728 0.086 0.5 0.1932 0.5h12.52c0.1071 0 0.1932-0.22272 0.1932-0.5v-2.9062c0-0.0693 0-0.15841-0.012-0.21875-0.03-0.18102-0.1007-0.3125-0.1811-0.3125l-12.52 0.00005z"/>
    <path id="path23577" style="color:#000000" d="m885 138.74c0 3.5208-2.8542 6.375-6.375 6.375s-6.375-2.8542-6.375-6.375 2.8542-6.375 6.375-6.375 6.375 2.8542 6.375 6.375z" fill-rule="evenodd" transform="matrix(.23413 0 0 .22354 1035.5 -230.21)" fill="#555753"/>
  </g>
  <g id="g5528" transform="matrix(0.8365, 0, 0, 0.8365, -691.892273, 312.090149)">
    <title>Cloud</title>
    <path id="path5465" style="color:#000000" d="m1131.9-121.7c-9.7042 0-17.899 6.4724-20.485 15.342-2.172-1.3449-4.7092-2.1332-7.4517-2.1332-7.7645 0-14.089 6.2378-14.231 13.968h-0.029v2.1917c0 2.666 2.1558 4.8217 4.8216 4.8217h62.36c2.6658 0 4.8216-2.1557 4.8216-4.8217 0.5737-7.4048-3.6646-12.092-9.8187-15.488-3.019-8.1125-10.824-13.881-19.988-13.881z" fill-rule="evenodd" stroke="#555753" stroke-width="3" fill="#fff"/>
    <path id="path5485" style="block-progression:tb;color:#000000;text-transform:none;text-indent:0" fill="#555753" d="m1122.7-88.652v14.125h-23.562v2h25.562v-12.125h3.0001v12.125h25.562v-2h-23.562v-14.125h-7.0001zm-23.562 19.125v2h54.125v-2h-54.125z"/>
  </g>
  <g id="g5520" transform="matrix(0.8365, 0, 0, 0.8365, -957.259277, 539.306335)">
    <title>Database</title>
    <path id="path5415" style="block-progression:tb;color:#000000;text-transform:none;text-indent:0" fill="#555753" d="m1218.7-82.652v8.125h-23.562v2h25.562v-6.125h3.0001v6.125h25.562v-2h-23.562v-8.125h-7.0001zm-23.562 13.125v2h54.125v-2h-54.125z"/>
    <g id="g5443" stroke="#555753" transform="translate(-113.17 90)">
      <path id="path5395" style="color:#000000" d="m1335.4 221.53c-10.224 0-18.569 3.0186-19.156 6.8438-0.787 1.3963-0.031 7.9657-0.031 8.9375 0 0.11484 0.017 0.23019 0.031 0.34375v0.0312c-0.787 1.3963-0.031 7.9657-0.031 8.9375 0 0.11484 0.017 0.23019 0.031 0.34375v0.0625c-0.787 1.3963-0.031 7.9344-0.031 8.9062 0 4.0258 8.582 7.3125 19.188 7.3125s19.219-3.2867 19.219-7.3125c0-0.66946 0.2636-5.9432 0-8.25 0.01-0.0866 0-0.16268 0-0.25 0-0.13677-0.043-0.27137-0.062-0.40625 0.02-0.13495 0.062-0.26948 0.062-0.40625 0-0.66945 0.2636-5.9433 0-8.25 0.01-0.0866 0-0.16267 0-0.25 0-0.13677-0.043-0.27137-0.062-0.40625 0.02-0.13495 0.062-0.26948 0.062-0.40625 0-0.66946 0.2636-5.9432 0-8.25 0.01-0.0866 0-0.16268 0-0.25 0-4.0258-8.6131-7.2812-19.219-7.2812z" fill-rule="evenodd" transform="translate(0 -435.83)" stroke-width="3" fill="#fff"/>
      <path id="path5405" style="color:#000000" stroke-width="2" fill="none" d="m1354.6-206.96c0 4.0258-8.5976 7.2894-19.203 7.2894-10.606 0-19.203-3.2636-19.203-7.2894"/>
      <path id="path5439" style="color:#000000" stroke-width="2" fill="none" d="m1354.9-196.96c0 4.0258-8.5976 7.2894-19.203 7.2894-10.606 0-19.203-3.2636-19.203-7.2894"/>
      <path id="path5441" style="color:#000000" stroke-width="2" fill="none" d="m1354.6-186.96c0 4.0258-8.5976 7.2894-19.203 7.2894-10.606 0-19.203-3.2636-19.203-7.2894"/>
    </g>
  </g>
  <g id="g-1" transform="matrix(0.8365, 0, 0, 0.8365, -838.542664, 479.704681)">
    <title>Serv3er</title>
    <path id="path-1" stroke="#555753" stroke-width="3" fill="#fff" d="m1196.1-182.85 2-9.0355c0-1.0651 1.4965-1.9226 3.3554-1.9226h45.5c1.8589 0 3.3554 0.85748 3.3554 1.9226l2 9.0355c0 1.0651-1.4965 1.9226-3.3554 1.9226h-49.5c-1.8589 0-3.3554-0.85748-3.3554-1.9226z"/>
    <path id="path-2" stroke="#555753" stroke-width="3" fill="#fff" d="m1196.1-171.16v-10.516c0-1.2397 1.4965-2.2377 3.3554-2.2377h49.5c1.8589 0 3.3554 0.998 3.3554 2.2377v10.516c0 1.2397-1.4965 2.2377-3.3554 2.2377h-49.5c-1.8589 0-3.3554-0.998-3.3554-2.2377z"/>
    <path id="path-3" style="color:#000000" d="m885 138.74c0 3.5208-2.8542 6.375-6.375 6.375s-6.375-2.8542-6.375-6.375 2.8542-6.375 6.375-6.375 6.375 2.8542 6.375 6.375z" fill-rule="evenodd" transform="matrix(.23413 0 0 .22354 1040.4 -210.15)" fill="#555753"/>
    <path id="path-4" fill="#555753" d="m1199.2-180.33c-0.08 0-0.1513 0.13148-0.1811 0.3125-0.01 0.0603-0.012 0.11818-0.012 0.1875-0.0002 0.01 0 0.0215 0 0.0312v2.9062c0 0.27728 0.086 0.5 0.1932 0.5h12.52c0.1071 0 0.1932-0.22272 0.1932-0.5v-2.9062c0-0.0693 0-0.15841-0.012-0.21875-0.03-0.18102-0.1007-0.3125-0.1811-0.3125l-12.52 0.00005z"/>
    <path id="path-5" fill="#555753" d="m1214-180.52c-0.08 0-0.1513 0.13148-0.1811 0.3125-0.01 0.0603-0.012 0.11818-0.012 0.1875-0.0002 0.01 0 0.0215 0 0.0312v2.9062c0 0.27728 0.086 0.5 0.1932 0.5h12.52c0.1071 0 0.1932-0.22272 0.1932-0.5v-2.9062c0-0.0693 0-0.15841-0.012-0.21875-0.03-0.18102-0.1007-0.3125-0.1811-0.3125l-12.52 0.00005z"/>
    <path id="path-6" style="color:#000000" d="m885 138.74c0 3.5208-2.8542 6.375-6.375 6.375s-6.375-2.8542-6.375-6.375 2.8542-6.375 6.375-6.375 6.375 2.8542 6.375 6.375z" fill-rule="evenodd" transform="matrix(.23413 0 0 .22354 1035.5 -210.21)" fill="#555753"/>
    <path id="path-7" style="block-progression:tb;color:#000000;text-transform:none;text-indent:0" fill="#555753" d="m1220.7-168.65v8.125h-23.562v2h25.562v-6.125h3.0001v6.125h25.562v-2h-23.562v-8.125h-7.0001zm-23.562 13.125v2h54.125v-2h-54.125z"/>
    <path id="path-8" stroke="#555753" stroke-width="3" fill="#fff" d="m1196.1-202.85 2-9.0355c0-1.0651 1.4965-1.9226 3.3554-1.9226h45.5c1.8589 0 3.3554 0.85748 3.3554 1.9226l2 9.0355c0 1.0651-1.4965 1.9226-3.3554 1.9226h-49.5c-1.8589 0-3.3554-0.85748-3.3554-1.9226z"/>
    <path id="path-9" stroke="#555753" stroke-width="3" fill="#fff" d="m1196.1-191.16v-10.516c0-1.2397 1.4965-2.2377 3.3554-2.2377h49.5c1.8589 0 3.3554 0.998 3.3554 2.2377v10.516c0 1.2397-1.4965 2.2377-3.3554 2.2377h-49.5c-1.8589 0-3.3554-0.998-3.3554-2.2377z"/>
    <path id="path-10" style="color:#000000" d="m885 138.74c0 3.5208-2.8542 6.375-6.375 6.375s-6.375-2.8542-6.375-6.375 2.8542-6.375 6.375-6.375 6.375 2.8542 6.375 6.375z" fill-rule="evenodd" transform="matrix(.23413 0 0 .22354 1040.4 -230.15)" fill="#555753"/>
    <path id="path-11" fill="#555753" d="m1199.2-200.33c-0.08 0-0.1513 0.13148-0.1811 0.3125-0.01 0.0603-0.012 0.11818-0.012 0.1875-0.0002 0.01 0 0.0215 0 0.0312v2.9062c0 0.27728 0.086 0.5 0.1932 0.5h12.52c0.1071 0 0.1932-0.22272 0.1932-0.5v-2.9062c0-0.0693 0-0.15841-0.012-0.21875-0.03-0.18102-0.1007-0.3125-0.1811-0.3125l-12.52 0.00005z"/>
    <path id="path-12" fill="#555753" d="m1214-200.52c-0.08 0-0.1513 0.13148-0.1811 0.3125-0.01 0.0603-0.012 0.11818-0.012 0.1875-0.0002 0.01 0 0.0215 0 0.0312v2.9062c0 0.27728 0.086 0.5 0.1932 0.5h12.52c0.1071 0 0.1932-0.22272 0.1932-0.5v-2.9062c0-0.0693 0-0.15841-0.012-0.21875-0.03-0.18102-0.1007-0.3125-0.1811-0.3125l-12.52 0.00005z"/>
    <path id="path-13" style="color:#000000" d="m885 138.74c0 3.5208-2.8542 6.375-6.375 6.375s-6.375-2.8542-6.375-6.375 2.8542-6.375 6.375-6.375 6.375 2.8542 6.375 6.375z" fill-rule="evenodd" transform="matrix(.23413 0 0 .22354 1035.5 -230.21)" fill="#555753"/>
  </g>
  <g id="g-2" transform="matrix(0.8365, 0, 0, 0.8365, -716.359985, 478.815002)">
    <title>Serv3er</title>
    <path id="path-14" stroke="#555753" stroke-width="3" fill="#fff" d="m1196.1-182.85 2-9.0355c0-1.0651 1.4965-1.9226 3.3554-1.9226h45.5c1.8589 0 3.3554 0.85748 3.3554 1.9226l2 9.0355c0 1.0651-1.4965 1.9226-3.3554 1.9226h-49.5c-1.8589 0-3.3554-0.85748-3.3554-1.9226z"/>
    <path id="path-15" stroke="#555753" stroke-width="3" fill="#fff" d="m1196.1-171.16v-10.516c0-1.2397 1.4965-2.2377 3.3554-2.2377h49.5c1.8589 0 3.3554 0.998 3.3554 2.2377v10.516c0 1.2397-1.4965 2.2377-3.3554 2.2377h-49.5c-1.8589 0-3.3554-0.998-3.3554-2.2377z"/>
    <path id="path-16" style="color:#000000" d="m885 138.74c0 3.5208-2.8542 6.375-6.375 6.375s-6.375-2.8542-6.375-6.375 2.8542-6.375 6.375-6.375 6.375 2.8542 6.375 6.375z" fill-rule="evenodd" transform="matrix(.23413 0 0 .22354 1040.4 -210.15)" fill="#555753"/>
    <path id="path-17" fill="#555753" d="m1199.2-180.33c-0.08 0-0.1513 0.13148-0.1811 0.3125-0.01 0.0603-0.012 0.11818-0.012 0.1875-0.0002 0.01 0 0.0215 0 0.0312v2.9062c0 0.27728 0.086 0.5 0.1932 0.5h12.52c0.1071 0 0.1932-0.22272 0.1932-0.5v-2.9062c0-0.0693 0-0.15841-0.012-0.21875-0.03-0.18102-0.1007-0.3125-0.1811-0.3125l-12.52 0.00005z"/>
    <path id="path-18" fill="#555753" d="m1214-180.52c-0.08 0-0.1513 0.13148-0.1811 0.3125-0.01 0.0603-0.012 0.11818-0.012 0.1875-0.0002 0.01 0 0.0215 0 0.0312v2.9062c0 0.27728 0.086 0.5 0.1932 0.5h12.52c0.1071 0 0.1932-0.22272 0.1932-0.5v-2.9062c0-0.0693 0-0.15841-0.012-0.21875-0.03-0.18102-0.1007-0.3125-0.1811-0.3125l-12.52 0.00005z"/>
    <path id="path-19" style="color:#000000" d="m885 138.74c0 3.5208-2.8542 6.375-6.375 6.375s-6.375-2.8542-6.375-6.375 2.8542-6.375 6.375-6.375 6.375 2.8542 6.375 6.375z" fill-rule="evenodd" transform="matrix(.23413 0 0 .22354 1035.5 -210.21)" fill="#555753"/>
    <path id="path-20" style="block-progression:tb;color:#000000;text-transform:none;text-indent:0" fill="#555753" d="m1220.7-168.65v8.125h-23.562v2h25.562v-6.125h3.0001v6.125h25.562v-2h-23.562v-8.125h-7.0001zm-23.562 13.125v2h54.125v-2h-54.125z"/>
    <path id="path-21" stroke="#555753" stroke-width="3" fill="#fff" d="m1196.1-202.85 2-9.0355c0-1.0651 1.4965-1.9226 3.3554-1.9226h45.5c1.8589 0 3.3554 0.85748 3.3554 1.9226l2 9.0355c0 1.0651-1.4965 1.9226-3.3554 1.9226h-49.5c-1.8589 0-3.3554-0.85748-3.3554-1.9226z"/>
    <path id="path-22" stroke="#555753" stroke-width="3" fill="#fff" d="m1196.1-191.16v-10.516c0-1.2397 1.4965-2.2377 3.3554-2.2377h49.5c1.8589 0 3.3554 0.998 3.3554 2.2377v10.516c0 1.2397-1.4965 2.2377-3.3554 2.2377h-49.5c-1.8589 0-3.3554-0.998-3.3554-2.2377z"/>
    <path id="path-23" style="color:#000000" d="m885 138.74c0 3.5208-2.8542 6.375-6.375 6.375s-6.375-2.8542-6.375-6.375 2.8542-6.375 6.375-6.375 6.375 2.8542 6.375 6.375z" fill-rule="evenodd" transform="matrix(.23413 0 0 .22354 1040.4 -230.15)" fill="#555753"/>
    <path id="path-24" fill="#555753" d="m1199.2-200.33c-0.08 0-0.1513 0.13148-0.1811 0.3125-0.01 0.0603-0.012 0.11818-0.012 0.1875-0.0002 0.01 0 0.0215 0 0.0312v2.9062c0 0.27728 0.086 0.5 0.1932 0.5h12.52c0.1071 0 0.1932-0.22272 0.1932-0.5v-2.9062c0-0.0693 0-0.15841-0.012-0.21875-0.03-0.18102-0.1007-0.3125-0.1811-0.3125l-12.52 0.00005z"/>
    <path id="path-25" fill="#555753" d="m1214-200.52c-0.08 0-0.1513 0.13148-0.1811 0.3125-0.01 0.0603-0.012 0.11818-0.012 0.1875-0.0002 0.01 0 0.0215 0 0.0312v2.9062c0 0.27728 0.086 0.5 0.1932 0.5h12.52c0.1071 0 0.1932-0.22272 0.1932-0.5v-2.9062c0-0.0693 0-0.15841-0.012-0.21875-0.03-0.18102-0.1007-0.3125-0.1811-0.3125l-12.52 0.00005z"/>
    <path id="path-26" style="color:#000000" d="m885 138.74c0 3.5208-2.8542 6.375-6.375 6.375s-6.375-2.8542-6.375-6.375 2.8542-6.375 6.375-6.375 6.375 2.8542 6.375 6.375z" fill-rule="evenodd" transform="matrix(.23413 0 0 .22354 1035.5 -230.21)" fill="#555753"/>
  </g>
  <g id="g-3" transform="matrix(0.8365, 0, 0, 0.8365, -594.177307, 477.925323)">
    <title>Serv3er</title>
    <path id="path-27" stroke="#555753" stroke-width="3" fill="#fff" d="m1196.1-182.85 2-9.0355c0-1.0651 1.4965-1.9226 3.3554-1.9226h45.5c1.8589 0 3.3554 0.85748 3.3554 1.9226l2 9.0355c0 1.0651-1.4965 1.9226-3.3554 1.9226h-49.5c-1.8589 0-3.3554-0.85748-3.3554-1.9226z"/>
    <path id="path-28" stroke="#555753" stroke-width="3" fill="#fff" d="m1196.1-171.16v-10.516c0-1.2397 1.4965-2.2377 3.3554-2.2377h49.5c1.8589 0 3.3554 0.998 3.3554 2.2377v10.516c0 1.2397-1.4965 2.2377-3.3554 2.2377h-49.5c-1.8589 0-3.3554-0.998-3.3554-2.2377z"/>
    <path id="path-29" style="color:#000000" d="m885 138.74c0 3.5208-2.8542 6.375-6.375 6.375s-6.375-2.8542-6.375-6.375 2.8542-6.375 6.375-6.375 6.375 2.8542 6.375 6.375z" fill-rule="evenodd" transform="matrix(.23413 0 0 .22354 1040.4 -210.15)" fill="#555753"/>
    <path id="path-30" fill="#555753" d="m1199.2-180.33c-0.08 0-0.1513 0.13148-0.1811 0.3125-0.01 0.0603-0.012 0.11818-0.012 0.1875-0.0002 0.01 0 0.0215 0 0.0312v2.9062c0 0.27728 0.086 0.5 0.1932 0.5h12.52c0.1071 0 0.1932-0.22272 0.1932-0.5v-2.9062c0-0.0693 0-0.15841-0.012-0.21875-0.03-0.18102-0.1007-0.3125-0.1811-0.3125l-12.52 0.00005z"/>
    <path id="path-31" fill="#555753" d="m1214-180.52c-0.08 0-0.1513 0.13148-0.1811 0.3125-0.01 0.0603-0.012 0.11818-0.012 0.1875-0.0002 0.01 0 0.0215 0 0.0312v2.9062c0 0.27728 0.086 0.5 0.1932 0.5h12.52c0.1071 0 0.1932-0.22272 0.1932-0.5v-2.9062c0-0.0693 0-0.15841-0.012-0.21875-0.03-0.18102-0.1007-0.3125-0.1811-0.3125l-12.52 0.00005z"/>
    <path id="path-32" style="color:#000000" d="m885 138.74c0 3.5208-2.8542 6.375-6.375 6.375s-6.375-2.8542-6.375-6.375 2.8542-6.375 6.375-6.375 6.375 2.8542 6.375 6.375z" fill-rule="evenodd" transform="matrix(.23413 0 0 .22354 1035.5 -210.21)" fill="#555753"/>
    <path id="path-33" style="block-progression:tb;color:#000000;text-transform:none;text-indent:0" fill="#555753" d="m1220.7-168.65v8.125h-23.562v2h25.562v-6.125h3.0001v6.125h25.562v-2h-23.562v-8.125h-7.0001zm-23.562 13.125v2h54.125v-2h-54.125z"/>
    <path id="path-34" stroke="#555753" stroke-width="3" fill="#fff" d="m1196.1-202.85 2-9.0355c0-1.0651 1.4965-1.9226 3.3554-1.9226h45.5c1.8589 0 3.3554 0.85748 3.3554 1.9226l2 9.0355c0 1.0651-1.4965 1.9226-3.3554 1.9226h-49.5c-1.8589 0-3.3554-0.85748-3.3554-1.9226z"/>
    <path id="path-35" stroke="#555753" stroke-width="3" fill="#fff" d="m1196.1-191.16v-10.516c0-1.2397 1.4965-2.2377 3.3554-2.2377h49.5c1.8589 0 3.3554 0.998 3.3554 2.2377v10.516c0 1.2397-1.4965 2.2377-3.3554 2.2377h-49.5c-1.8589 0-3.3554-0.998-3.3554-2.2377z"/>
    <path id="path-36" style="color:#000000" d="m885 138.74c0 3.5208-2.8542 6.375-6.375 6.375s-6.375-2.8542-6.375-6.375 2.8542-6.375 6.375-6.375 6.375 2.8542 6.375 6.375z" fill-rule="evenodd" transform="matrix(.23413 0 0 .22354 1040.4 -230.15)" fill="#555753"/>
    <path id="path-37" fill="#555753" d="m1199.2-200.33c-0.08 0-0.1513 0.13148-0.1811 0.3125-0.01 0.0603-0.012 0.11818-0.012 0.1875-0.0002 0.01 0 0.0215 0 0.0312v2.9062c0 0.27728 0.086 0.5 0.1932 0.5h12.52c0.1071 0 0.1932-0.22272 0.1932-0.5v-2.9062c0-0.0693 0-0.15841-0.012-0.21875-0.03-0.18102-0.1007-0.3125-0.1811-0.3125l-12.52 0.00005z"/>
    <path id="path-38" fill="#555753" d="m1214-200.52c-0.08 0-0.1513 0.13148-0.1811 0.3125-0.01 0.0603-0.012 0.11818-0.012 0.1875-0.0002 0.01 0 0.0215 0 0.0312v2.9062c0 0.27728 0.086 0.5 0.1932 0.5h12.52c0.1071 0 0.1932-0.22272 0.1932-0.5v-2.9062c0-0.0693 0-0.15841-0.012-0.21875-0.03-0.18102-0.1007-0.3125-0.1811-0.3125l-12.52 0.00005z"/>
    <path id="path-39" style="color:#000000" d="m885 138.74c0 3.5208-2.8542 6.375-6.375 6.375s-6.375-2.8542-6.375-6.375 2.8542-6.375 6.375-6.375 6.375 2.8542 6.375 6.375z" fill-rule="evenodd" transform="matrix(.23413 0 0 .22354 1035.5 -230.21)" fill="#555753"/>
  </g>
  <g id="g-4" transform="matrix(0.8365, 0, 0, 0.8365, -835.966248, 539.306335)">
    <title>Database</title>
    <path id="path-40" style="block-progression:tb;color:#000000;text-transform:none;text-indent:0" fill="#555753" d="m1218.7-82.652v8.125h-23.562v2h25.562v-6.125h3.0001v6.125h25.562v-2h-23.562v-8.125h-7.0001zm-23.562 13.125v2h54.125v-2h-54.125z"/>
    <g id="g-5" stroke="#555753" transform="translate(-113.17 90)">
      <path id="path-41" style="color:#000000" d="m1335.4 221.53c-10.224 0-18.569 3.0186-19.156 6.8438-0.787 1.3963-0.031 7.9657-0.031 8.9375 0 0.11484 0.017 0.23019 0.031 0.34375v0.0312c-0.787 1.3963-0.031 7.9657-0.031 8.9375 0 0.11484 0.017 0.23019 0.031 0.34375v0.0625c-0.787 1.3963-0.031 7.9344-0.031 8.9062 0 4.0258 8.582 7.3125 19.188 7.3125s19.219-3.2867 19.219-7.3125c0-0.66946 0.2636-5.9432 0-8.25 0.01-0.0866 0-0.16268 0-0.25 0-0.13677-0.043-0.27137-0.062-0.40625 0.02-0.13495 0.062-0.26948 0.062-0.40625 0-0.66945 0.2636-5.9433 0-8.25 0.01-0.0866 0-0.16267 0-0.25 0-0.13677-0.043-0.27137-0.062-0.40625 0.02-0.13495 0.062-0.26948 0.062-0.40625 0-0.66946 0.2636-5.9432 0-8.25 0.01-0.0866 0-0.16268 0-0.25 0-4.0258-8.6131-7.2812-19.219-7.2812z" fill-rule="evenodd" transform="translate(0 -435.83)" stroke-width="3" fill="#fff"/>
      <path id="path-42" style="color:#000000" stroke-width="2" fill="none" d="m1354.6-206.96c0 4.0258-8.5976 7.2894-19.203 7.2894-10.606 0-19.203-3.2636-19.203-7.2894"/>
      <path id="path-43" style="color:#000000" stroke-width="2" fill="none" d="m1354.9-196.96c0 4.0258-8.5976 7.2894-19.203 7.2894-10.606 0-19.203-3.2636-19.203-7.2894"/>
      <path id="path-44" style="color:#000000" stroke-width="2" fill="none" d="m1354.6-186.96c0 4.0258-8.5976 7.2894-19.203 7.2894-10.606 0-19.203-3.2636-19.203-7.2894"/>
    </g>
  </g>
  <g id="g-6" transform="matrix(0.8365, 0, 0, 0.8365, -714.673279, 537.526978)">
    <title>Database</title>
    <path id="path-45" style="block-progression:tb;color:#000000;text-transform:none;text-indent:0" fill="#555753" d="m1218.7-82.652v8.125h-23.562v2h25.562v-6.125h3.0001v6.125h25.562v-2h-23.562v-8.125h-7.0001zm-23.562 13.125v2h54.125v-2h-54.125z"/>
    <g id="g-7" stroke="#555753" transform="translate(-113.17 90)">
      <path id="path-46" style="color:#000000" d="m1335.4 221.53c-10.224 0-18.569 3.0186-19.156 6.8438-0.787 1.3963-0.031 7.9657-0.031 8.9375 0 0.11484 0.017 0.23019 0.031 0.34375v0.0312c-0.787 1.3963-0.031 7.9657-0.031 8.9375 0 0.11484 0.017 0.23019 0.031 0.34375v0.0625c-0.787 1.3963-0.031 7.9344-0.031 8.9062 0 4.0258 8.582 7.3125 19.188 7.3125s19.219-3.2867 19.219-7.3125c0-0.66946 0.2636-5.9432 0-8.25 0.01-0.0866 0-0.16268 0-0.25 0-0.13677-0.043-0.27137-0.062-0.40625 0.02-0.13495 0.062-0.26948 0.062-0.40625 0-0.66945 0.2636-5.9433 0-8.25 0.01-0.0866 0-0.16267 0-0.25 0-0.13677-0.043-0.27137-0.062-0.40625 0.02-0.13495 0.062-0.26948 0.062-0.40625 0-0.66946 0.2636-5.9432 0-8.25 0.01-0.0866 0-0.16268 0-0.25 0-4.0258-8.6131-7.2812-19.219-7.2812z" fill-rule="evenodd" transform="translate(0 -435.83)" stroke-width="3" fill="#fff"/>
      <path id="path-47" style="color:#000000" stroke-width="2" fill="none" d="m1354.6-206.96c0 4.0258-8.5976 7.2894-19.203 7.2894-10.606 0-19.203-3.2636-19.203-7.2894"/>
      <path id="path-48" style="color:#000000" stroke-width="2" fill="none" d="m1354.9-196.96c0 4.0258-8.5976 7.2894-19.203 7.2894-10.606 0-19.203-3.2636-19.203-7.2894"/>
      <path id="path-49" style="color:#000000" stroke-width="2" fill="none" d="m1354.6-186.96c0 4.0258-8.5976 7.2894-19.203 7.2894-10.606 0-19.203-3.2636-19.203-7.2894"/>
    </g>
  </g>
  <g id="g-8" transform="matrix(0.8365, 0, 0, 0.8365, -593.380249, 539.306335)">
    <title>Database</title>
    <path id="path-50" style="block-progression:tb;color:#000000;text-transform:none;text-indent:0" fill="#555753" d="m1218.7-82.652v8.125h-23.562v2h25.562v-6.125h3.0001v6.125h25.562v-2h-23.562v-8.125h-7.0001zm-23.562 13.125v2h54.125v-2h-54.125z"/>
    <g id="g-9" stroke="#555753" transform="translate(-113.17 90)">
      <path id="path-51" style="color:#000000" d="m1335.4 221.53c-10.224 0-18.569 3.0186-19.156 6.8438-0.787 1.3963-0.031 7.9657-0.031 8.9375 0 0.11484 0.017 0.23019 0.031 0.34375v0.0312c-0.787 1.3963-0.031 7.9657-0.031 8.9375 0 0.11484 0.017 0.23019 0.031 0.34375v0.0625c-0.787 1.3963-0.031 7.9344-0.031 8.9062 0 4.0258 8.582 7.3125 19.188 7.3125s19.219-3.2867 19.219-7.3125c0-0.66946 0.2636-5.9432 0-8.25 0.01-0.0866 0-0.16268 0-0.25 0-0.13677-0.043-0.27137-0.062-0.40625 0.02-0.13495 0.062-0.26948 0.062-0.40625 0-0.66945 0.2636-5.9433 0-8.25 0.01-0.0866 0-0.16267 0-0.25 0-0.13677-0.043-0.27137-0.062-0.40625 0.02-0.13495 0.062-0.26948 0.062-0.40625 0-0.66946 0.2636-5.9432 0-8.25 0.01-0.0866 0-0.16268 0-0.25 0-4.0258-8.6131-7.2812-19.219-7.2812z" fill-rule="evenodd" transform="translate(0 -435.83)" stroke-width="3" fill="#fff"/>
      <path id="path-52" style="color:#000000" stroke-width="2" fill="none" d="m1354.6-206.96c0 4.0258-8.5976 7.2894-19.203 7.2894-10.606 0-19.203-3.2636-19.203-7.2894"/>
      <path id="path-53" style="color:#000000" stroke-width="2" fill="none" d="m1354.9-196.96c0 4.0258-8.5976 7.2894-19.203 7.2894-10.606 0-19.203-3.2636-19.203-7.2894"/>
      <path id="path-54" style="color:#000000" stroke-width="2" fill="none" d="m1354.6-186.96c0 4.0258-8.5976 7.2894-19.203 7.2894-10.606 0-19.203-3.2636-19.203-7.2894"/>
    </g>
  </g>
  <line style="stroke: rgb(0, 0, 0);" x1="211.7437744140625" y1="250" x2="100.53380584716797" y2="291.81494140625"/>
  <line style="stroke: rgb(0, 0, 0);" x1="247.33096313476562" y1="264.23486328125" x2="214.41281127929688" y2="293.59429931640625"/>
  <line style="stroke: rgb(0, 0, 0);" x1="274.9110412597656" y1="262.45550537109375" x2="302.4911193847656" y2="289.1459045410156"/>
  <line style="stroke: rgb(0, 0, 0);" x1="294.4839782714844" y1="247.33096313476562" x2="294.4839782714844" y2="247.33096313476562"/>
  <line style="stroke: rgb(0, 0, 0);" x1="297.15301513671875" y1="241.10321044921875" x2="403.9145812988281" y2="290.03558349609375"/>
  <line style="stroke: rgb(0, 0, 0);" x1="62.27758026123047" y1="364.7686767578125" x2="62.27758026123047" y2="423.4942932128906"/>
  <line style="stroke: rgb(0, 0, 0);" x1="185.05337524414062" y1="362.0996398925781" x2="185.05337524414062" y2="427.1436767578125"/>
  <line style="stroke: rgb(0, 0, 0);" x1="306.93951416015625" y1="360.3202819824219" x2="306.93951416015625" y2="426.2106628417969"/>
  <line style="stroke: rgb(0, 0, 0);" x1="431.4946594238281" y1="361.2099609375" x2="431.4946594238281" y2="426.4544982910156"/>
  <line style="stroke: rgb(0, 0, 0);" x1="81.85053253173828" y1="417.2597961425781" x2="172.59786987304688" y2="362.0996398925781"/>
  <line style="stroke: rgb(0, 0, 0);" x1="199.2882537841797" y1="362.98931884765625" x2="289.1459045410156" y2="418.14947509765625"/>
  <line style="stroke: rgb(0, 0, 0);" x1="215.302490234375" y1="357.6512451171875" x2="411.03204345703125" y2="424.3772277832031"/>
  <line style="stroke: rgb(0, 0, 0);" x1="80.96085357666016" y1="362.98931884765625" x2="170.81851196289062" y2="422.5978698730469"/>
  <line style="stroke: rgb(0, 0, 0);" x1="92.52668762207031" y1="359.43060302734375" x2="277.580078125" y2="437.722412109375"/>
  <line style="stroke: rgb(0, 0, 0);" x1="96.97509002685547" y1="351.4234924316406" x2="393.2384338378906" y2="440.3914489746094"/>
  <line style="stroke: rgb(0, 0, 0);" x1="286.47686767578125" y1="363.8789978027344" x2="87.18861389160156" y2="437.722412109375"/>
  <line style="stroke: rgb(0, 0, 0);" x1="295.3736572265625" y1="363.8789978027344" x2="216.19216918945312" y2="430.60498046875"/>
  <line style="stroke: rgb(0, 0, 0);" x1="319.39501953125" y1="363.8789978027344" x2="418.14947509765625" y2="421.70819091796875"/>
  <line style="stroke: rgb(0, 0, 0);" x1="415.4804382324219" y1="363.8789978027344" x2="327.4021301269531" y2="430.60498046875"/>
  <line style="stroke: rgb(0, 0, 0);" x1="394.12811279296875" y1="359.43060302734375" x2="394.12811279296875" y2="359.43060302734375"/>
  <line style="stroke: rgb(0, 0, 0);" x1="391.4590759277344" y1="355.87188720703125" x2="243.77224731445312" y2="425.26690673828125"/>
  <line style="stroke: rgb(0, 0, 0);" x1="243.77224731445312" y1="425.26690673828125" x2="243.77224731445312" y2="425.26690673828125"/>
  <line style="stroke: rgb(0, 0, 0);" x1="386.1210021972656" y1="346.97509765625" x2="104.092529296875" y2="443.9501953125"/>
</svg>